<mxfile host="app.diagrams.net" modified="2021-05-10T08:44:33.434Z" agent="5.0 (Windows NT 10.0; Win64; x64) AppleWebKit/537.36 (KHTML, like Gecko) Chrome/89.0.4389.90 Safari/537.36" etag="CVAwDwJ0gjoicryTAEHO" version="14.6.11" type="github">
  <diagram id="AYs1gz52TROg5NEckKcp" name="第 1 页">
    <mxGraphModel dx="1024" dy="527" grid="1" gridSize="10" guides="1" tooltips="1" connect="1" arrows="1" fold="1" page="1" pageScale="1" pageWidth="827" pageHeight="1169" math="0" shadow="0">
      <root>
        <mxCell id="0" />
        <mxCell id="1" parent="0" />
        <mxCell id="cpCyZkWKpkB8B-cOEzim-1" value="玩家" style="shape=umlActor;verticalLabelPosition=bottom;verticalAlign=top;html=1;outlineConnect=0;" vertex="1" parent="1">
          <mxGeometry x="50" y="360" width="30" height="60" as="geometry" />
        </mxCell>
        <mxCell id="cpCyZkWKpkB8B-cOEzim-2" value="" style="whiteSpace=wrap;html=1;aspect=fixed;" vertex="1" parent="1">
          <mxGeometry x="140" y="250" width="350" height="350" as="geometry" />
        </mxCell>
        <mxCell id="cpCyZkWKpkB8B-cOEzim-3" value="数据库" style="shape=umlActor;verticalLabelPosition=bottom;verticalAlign=top;html=1;outlineConnect=0;" vertex="1" parent="1">
          <mxGeometry x="580" y="330" width="30" height="60" as="geometry" />
        </mxCell>
        <mxCell id="cpCyZkWKpkB8B-cOEzim-4" value="登录" style="ellipse;whiteSpace=wrap;html=1;" vertex="1" parent="1">
          <mxGeometry x="265" y="290" width="100" height="40" as="geometry" />
        </mxCell>
        <mxCell id="cpCyZkWKpkB8B-cOEzim-5" value="注册" style="ellipse;whiteSpace=wrap;html=1;" vertex="1" parent="1">
          <mxGeometry x="265" y="350" width="100" height="40" as="geometry" />
        </mxCell>
        <mxCell id="cpCyZkWKpkB8B-cOEzim-6" value="游客模式" style="ellipse;whiteSpace=wrap;html=1;" vertex="1" parent="1">
          <mxGeometry x="265" y="420" width="100" height="40" as="geometry" />
        </mxCell>
        <mxCell id="cpCyZkWKpkB8B-cOEzim-7" value="开始游戏" style="ellipse;whiteSpace=wrap;html=1;" vertex="1" parent="1">
          <mxGeometry x="265" y="490" width="100" height="40" as="geometry" />
        </mxCell>
        <mxCell id="cpCyZkWKpkB8B-cOEzim-10" value="" style="endArrow=classic;html=1;entryX=1;entryY=0.5;entryDx=0;entryDy=0;" edge="1" parent="1" source="cpCyZkWKpkB8B-cOEzim-3" target="cpCyZkWKpkB8B-cOEzim-4">
          <mxGeometry width="50" height="50" relative="1" as="geometry">
            <mxPoint x="390" y="400" as="sourcePoint" />
            <mxPoint x="440" y="350" as="targetPoint" />
          </mxGeometry>
        </mxCell>
        <mxCell id="cpCyZkWKpkB8B-cOEzim-11" value="" style="endArrow=classic;html=1;exitX=1;exitY=0.3333333333333333;exitDx=0;exitDy=0;exitPerimeter=0;" edge="1" parent="1" source="cpCyZkWKpkB8B-cOEzim-1" target="cpCyZkWKpkB8B-cOEzim-4">
          <mxGeometry width="50" height="50" relative="1" as="geometry">
            <mxPoint x="80" y="430" as="sourcePoint" />
            <mxPoint x="120" y="390" as="targetPoint" />
          </mxGeometry>
        </mxCell>
        <mxCell id="cpCyZkWKpkB8B-cOEzim-12" value="" style="endArrow=classic;html=1;exitX=1;exitY=0.3333333333333333;exitDx=0;exitDy=0;exitPerimeter=0;" edge="1" parent="1" source="cpCyZkWKpkB8B-cOEzim-1" target="cpCyZkWKpkB8B-cOEzim-5">
          <mxGeometry width="50" height="50" relative="1" as="geometry">
            <mxPoint x="90" y="390" as="sourcePoint" />
            <mxPoint x="284.8978444829809" y="331.945322919963" as="targetPoint" />
          </mxGeometry>
        </mxCell>
        <mxCell id="cpCyZkWKpkB8B-cOEzim-13" value="" style="endArrow=classic;html=1;" edge="1" parent="1" target="cpCyZkWKpkB8B-cOEzim-6">
          <mxGeometry width="50" height="50" relative="1" as="geometry">
            <mxPoint x="80" y="382" as="sourcePoint" />
            <mxPoint x="275.2805543410477" y="382.11572109187034" as="targetPoint" />
          </mxGeometry>
        </mxCell>
        <mxCell id="cpCyZkWKpkB8B-cOEzim-14" value="" style="endArrow=classic;html=1;exitX=1;exitY=0.3333333333333333;exitDx=0;exitDy=0;exitPerimeter=0;entryX=0;entryY=0;entryDx=0;entryDy=0;" edge="1" parent="1" source="cpCyZkWKpkB8B-cOEzim-1" target="cpCyZkWKpkB8B-cOEzim-7">
          <mxGeometry width="50" height="50" relative="1" as="geometry">
            <mxPoint x="90" y="392" as="sourcePoint" />
            <mxPoint x="282.44819936001704" y="439.497853459068" as="targetPoint" />
          </mxGeometry>
        </mxCell>
        <mxCell id="cpCyZkWKpkB8B-cOEzim-16" value="" style="endArrow=classic;html=1;" edge="1" parent="1" target="cpCyZkWKpkB8B-cOEzim-5">
          <mxGeometry width="50" height="50" relative="1" as="geometry">
            <mxPoint x="590" y="366.7391304347826" as="sourcePoint" />
            <mxPoint x="375" y="320" as="targetPoint" />
          </mxGeometry>
        </mxCell>
      </root>
    </mxGraphModel>
  </diagram>
</mxfile>
